:SAMPLES-PER-SECOND 30
:FULLY-SPECIFIED
:DEGREES
433
root  -2.14367 38.5053 10.1168 178.854 27.8779 174.182
RightUpLeg  -16.045 -10.2814 -21.9801
RightLeg  13.7694 -12.4523 -4.42494
RightFoot  10.7557 -2.56386 13.3897
RightToes  -1.74624e-010 0 -3.6325e-017
Spine  6.16168 -0.982586 -6.90022
Spine1  23.2947 -1.29556 -0.658826
HEad  -10.4574 25.7758 -11.3249
LeftShoulder1  0.581755 0.748431 -14.1739
LeftArm  12.8612 -10.3094 -59.2007
LeftForeArm  67.258 -79.1726 -79.2654
LeftHand  -2.25752 -3.32029 29.7467
RightShoulder  0.620616 -0.00859707 10.5827
RightArm  3.30666 -19.7258 60.4967
RightForeArm  152.426 64.2854 157.734
RightHand  -1.20147 4.91096 -13.767
LeftUpLeg  -3.66755 -8.75952 8.98192
LeftLeg  18.2333 -2.5528 -0.371311
LeftFoot  -10.5371 0.198796 -19.3212
LeftToes  3.7286e-011 -1.5702e-010 -9.70233e-012
434
root  -0.957854 38.3124 10.3548 179.489 26.2997 173.566
RightUpLeg  -16.9418 -10.3512 -22.9723
RightLeg  14.4257 -13.286 -4.76106
RightFoot  11.5739 -3.2899 16.6
RightToes  -1.74624e-010 0 -3.6325e-017
Spine  7.20965 -1.13303 -5.40534
Spine1  21.0052 -1.12565 -1.33117
HEad  -10.5227 25.035 -11.8694
LeftShoulder1  0.529546 0.997681 -14.1903
LeftArm  12.098 -8.99538 -57.2704
LeftForeArm  70.8235 -79.2729 -82.949
LeftHand  -2.18966 -3.24882 29.1219
RightShoulder  0.586021 -0.0909119 9.92936
RightArm  1.98694 -19.8384 59.9697
RightForeArm  152.343 63.5325 158.408
RightHand  -1.08919 4.49866 -13.0167
LeftUpLeg  -4.686 -9.32826 10.5416
LeftLeg  18.138 -3.60316 -0.768214
LeftFoot  -9.30827 0.433204 -21.176
LeftToes  3.7286e-011 -1.5702e-010 -9.70233e-012
435
root  0.243923 37.86 10.6445 179.813 24.7169 172.902
RightUpLeg  -18.743 -10.309 -23.8828
RightLeg  19.5238 -12.3418 -4.91041
RightFoot  7.48751 -3.62705 22.0257
RightToes  -1.74624e-010 0 -3.6325e-017
Spine  9.2025 -1.24945 -4.16812
Spine1  17.8983 -1.16876 -1.5317
HEad  -10.6704 24.4131 -12.6011
LeftShoulder1  0.468099 1.29918 -14.2989
LeftArm  11.5361 -6.50663 -55.4846
LeftForeArm  76.4026 -79.3353 -88.8812
LeftHand  -2.12919 -3.16028 28.6387
RightShoulder  0.564705 -0.134967 9.47024
RightArm  1.01947 -19.206 58.5638
RightForeArm  151.905 62.4883 159.26
RightHand  -1.01341 4.17799 -12.524
LeftUpLeg  -6.14675 -10.2696 12.2335
LeftLeg  19.5687 -3.78739 -1.17865
LeftFoot  -9.5657 0.413191 -22.7924
LeftToes  3.7286e-011 -1.5702e-010 -9.70233e-012
436
root  1.3083 37.2696 10.9998 179.532 23.2341 172.251
RightUpLeg  -21.4273 -13.3421 -23.5457
RightLeg  27.1009 -7.59156 -4.40974
RightFoot  1.05699 -2.70501 24.424
RightToes  -1.74624e-010 0 -3.6325e-017
Spine  11.6014 -1.51866 -2.76327
Spine1  15.8322 -1.35518 -1.6587
HEad  -12.0394 24.0016 -14.0193
LeftShoulder1  0.476111 1.27467 -14.4357
LeftArm  10.7781 -3.64431 -54.3486
LeftForeArm  81.9815 -79.3202 -94.3165
LeftHand  -2.17849 -3.18819 29.1706
RightShoulder  0.544218 -0.267446 9.53474
RightArm  -0.0439795 -16.6811 56.3395
RightForeArm  150.316 61.7093 159.742
RightHand  -0.977697 3.98953 -12.3256
LeftUpLeg  -7.51605 -10.6761 13.5892
LeftLeg  21.9668 -4.08657 -1.48147
LeftFoot  -10.7929 0.179002 -23.5859
LeftToes  3.7286e-011 -1.5702e-010 -9.70233e-012
437
root  2.16052 36.7202 11.3613 178.706 22.6813 171.629
RightUpLeg  -24.3455 -15.5516 -22.9006
RightLeg  34.5318 -4.65533 -3.72456
RightFoot  -3.73103 -1.55576 22.7006
RightToes  -1.74624e-010 0 -3.6325e-017
Spine  13.3074 -1.81251 -0.819162
Spine1  16.3217 -1.17873 -2.48701
HEad  -14.8137 23.7516 -16.4135
LeftShoulder1  0.606256 0.697787 -14.7056
LeftArm  9.89697 -1.14598 -54.4893
LeftForeArm  81.687 -79.365 -93.1991
LeftHand  -2.3309 -3.31339 30.6842
RightShoulder  0.522681 -0.408323 9.61418
RightArm  -1.80185 -12.3763 54.3762
RightForeArm  147.481 62.0034 159.228
RightHand  -0.974339 3.86017 -12.4476
LeftUpLeg  -8.01185 -10.6581 14.2513
LeftLeg  24.2122 -4.24681 -1.75015
LeftFoot  -12.582 -0.182359 -23.5129
LeftToes  3.7286e-011 -1.5702e-010 -9.70233e-012
438
root  2.81794 36.3432 11.6321 177.899 23.3207 170.932
RightUpLeg  -26.8346 -15.4827 -22.3541
RightLeg  39.6228 -4.1997 -4.00675
RightFoot  -5.95614 -1.02469 20.7847
RightToes  -1.74624e-010 0 -3.6325e-017
Spine  14.0628 -2.00938 1.36394
Spine1  18.1126 -0.510169 -4.09993
HEad  -17.5234 23.6531 -19.0786
LeftShoulder1  0.783156 -0.0386995 -15.2634
LeftArm  9.81377 0.996396 -56.0261
LeftForeArm  72.8015 -79.3372 -83.7001
LeftHand  -2.44406 -3.35814 31.9427
RightShoulder  0.521118 -0.353382 9.22963
RightArm  -3.78091 -8.10357 53.4731
RightForeArm  144.824 63.3202 157.836
RightHand  -1.00527 3.81039 -12.8964
LeftUpLeg  -7.6132 -10.0997 14.0798
LeftLeg  25.4536 -3.68739 -1.5721
LeftFoot  -14.2717 -0.51649 -23.2103
LeftToes  3.7286e-011 -1.5702e-010 -9.70233e-012
439
root  3.31987 36.172 11.7843 177.7 24.2354 170.079
RightUpLeg  -28.5529 -13.9794 -22.2043
RightLeg  42.0113 -4.59367 -4.70632
RightFoot  -7.1435 -0.815701 20.7342
RightToes  -1.74624e-010 0 -3.6325e-017
Spine  14.2354 -2.26232 3.26327
Spine1  19.1543 0.135718 -5.84182
HEad  -18.7937 23.8252 -21.0106
LeftShoulder1  0.905747 -0.446181 -16.1738
LeftArm  11.3214 3.02183 -58.1318
LeftForeArm  61.0492 -78.8729 -72.1192
LeftHand  -2.44886 -3.3206 32.1272
RightShoulder  0.532877 -0.214193 8.83364
RightArm  -5.00797 -5.32928 53.3216
RightForeArm  143.821 64.6108 156.52
RightHand  -1.06411 3.935 -13.4561
LeftUpLeg  -7.30207 -9.56868 13.3287
LeftLeg  25.7048 -1.4452 -0.418742
LeftFoot  -14.7707 -0.610478 -23.0468
LeftToes  3.7286e-011 -1.5702e-010 -9.70233e-012
440
root  3.68362 36.1879 11.8861 178.147 24.4057 169.163
RightUpLeg  -29.5825 -13.0222 -22.374
RightLeg  42.5637 -4.99089 -5.18246
RightFoot  -8.05205 -0.66764 21.0858
RightToes  -1.74624e-010 0 -3.6325e-017
Spine  14.0521 -2.68876 4.52034
Spine1  19.2543 0.232926 -6.90538
HEad  -18.878 24.2153 -22.0973
LeftShoulder1  0.969015 -0.562413 -17.1487
LeftArm  14.2049 4.86581 -59.9437
LeftForeArm  54.5464 -78.3902 -65.7368
LeftHand  -2.4502 -3.41617 31.8154
RightShoulder  0.526232 -0.28033 8.98405
RightArm  -5.35577 -4.01904 53.3271
RightForeArm  144.292 65.0294 156.144
RightHand  -1.12128 4.15953 -13.8418
LeftUpLeg  -7.7929 -9.36862 12.4403
LeftLeg  25.4115 1.86501 1.30407
LeftFoot  -13.4483 -0.342361 -22.6161
LeftToes  3.7286e-011 -1.5702e-010 -9.70233e-012
441
root  3.92273 36.3632 11.9954 178.739 23.8483 168.355
RightUpLeg  -29.9565 -13.4467 -22.5779
RightLeg  41.9719 -5.36255 -5.43366
RightFoot  -8.14178 -0.637345 20.6296
RightToes  -1.74624e-010 0 -3.6325e-017
Spine  13.678 -3.12644 5.07666
Spine1  19.3982 -0.158493 -6.93588
HEad  -18.8084 24.5487 -22.9083
LeftShoulder1  1.02931 -0.727532 -17.6863
LeftArm  17.5072 6.20545 -61.3109
LeftForeArm  54.778 -78.3644 -64.9585
LeftHand  -2.5239 -3.75948 31.5606
RightShoulder  0.496989 -0.520215 9.36051
RightArm  -5.43167 -3.6512 53.5098
RightForeArm  144.857 64.7426 156.493
RightHand  -1.13768 4.24926 -13.9129
LeftUpLeg  -8.5504 -8.97676 11.7117
LeftLeg  24.5169 4.21749 2.43791
LeftFoot  -10.81 0.165917 -21.8133
LeftToes  3.7286e-011 -1.5702e-010 -9.70233e-012
442
root  4.08015 36.6289 12.0984 179.067 23.2706 167.697
RightUpLeg  -29.6801 -14.4987 -22.7377
RightLeg  40.5603 -5.56318 -5.36318
RightFoot  -7.45948 -0.736304 20.0222
RightToes  -1.74624e-010 0 -3.6325e-017
Spine  13.378 -3.34234 5.09797
Spine1  19.7519 -0.594761 -6.34764
HEad  -18.8651 24.6579 -23.6107
LeftShoulder1  1.09825 -1.00994 -17.6951
LeftArm  20.333 6.83694 -62.2359
LeftForeArm  58.456 -78.6121 -66.6731
LeftHand  -2.5845 -4.20012 30.8746
RightShoulder  0.479095 -0.637716 9.43193
RightArm  -5.57056 -4.09957 54.1453
RightForeArm  145.002 64.4557 156.792
RightHand  -1.11315 4.15338 -13.7518
LeftUpLeg  -8.6906 -7.96615 11.1197
LeftLeg  22.7467 4.78793 2.53921
LeftFoot  -7.886 0.701386 -21.4168
LeftToes  3.7286e-011 -1.5702e-010 -9.70233e-012
443
root  4.1998 36.8898 12.1652 179.221 23.0591 167.143
RightUpLeg  -29.114 -15.2676 -22.8823
RightLeg  38.8087 -5.45971 -4.96336
RightFoot  -6.85525 -0.83224 19.8575
RightToes  -1.74624e-010 0 -3.6325e-017
Spine  13.2141 -3.31953 4.8619
Spine1  19.7192 -0.791727 -5.84573
HEad  -18.6829 24.6222 -23.8853
LeftShoulder1  1.13066 -1.1733 -17.5244
LeftArm  22.1804 6.82511 -62.6006
LeftForeArm  62.062 -78.8434 -68.449
LeftHand  -2.53981 -4.47914 29.5517
RightShoulder  0.493948 -0.540891 9.37725
RightArm  -5.54922 -5.22773 55.0009
RightForeArm  145.446 64.5074 156.788
RightHand  -1.09333 4.10306 -13.5826
LeftUpLeg  -8.20849 -6.90395 10.5867
LeftLeg  20.4558 4.82961 2.31611
LeftFoot  -5.28583 1.1923 -21.7059
LeftToes  3.7286e-011 -1.5702e-010 -9.70233e-012
